<svg id="地址" xmlns="http://www.w3.org/2000/svg" width="36" height="36" viewBox="0 0 36 36">
  <metadata><?xpacket begin="" id="W5M0MpCehiHzreSzNTczkc9d"?>
<x:xmpmeta xmlns:x="adobe:ns:meta/" x:xmptk="Adobe XMP Core 5.6-c142 79.160924, 2017/07/13-01:06:39        ">
   <rdf:RDF xmlns:rdf="http://www.w3.org/1999/02/22-rdf-syntax-ns#">
      <rdf:Description rdf:about=""/>
   </rdf:RDF>
</x:xmpmeta>
                                                                                                    
                                                                                                    
                                                                                                    
                                                                                                    
                                                                                                    
                                                                                                    
                                                                                                    
                                                                                                    
                                                                                                    
                                                                                                    
                                                                                                    
                                                                                                    
                                                                                                    
                                                                                                    
                                                                                                    
                                                                                                    
                                                                                                    
                                                                                                    
                                                                                                    
                                                                                                    
                           
<?xpacket end="w"?></metadata>
<defs>
    <style>
      .cls-1 {
        fill: #3093c3;
      }

      .cls-2 {
        fill: #fff;
        fill-rule: evenodd;
      }
    </style>
  </defs>
  <circle id="椭圆_3" data-name="椭圆 3" class="cls-1" cx="18" cy="18" r="18"/>
  <path id="形状_518" data-name="形状 518" class="cls-2" d="M748,484a6.081,6.081,0,0,1,6,6c0,3.417-3.639,7.341-6,9.415-2.362-2.075-6-6-6-9.415a6.081,6.081,0,0,1,6-6m0-2a8.08,8.08,0,0,0-8,8c0,6,8,12,8,12s8-6,8-12a8.08,8.08,0,0,0-8-8h0Zm2,8a2,2,0,1,1-2-2A2,2,0,0,1,750,490Z" transform="translate(-730 -474)"/>
</svg>
